<?xml version="1.0" encoding="UTF-8"?>

<!--

AIPlanner - Deep Learning Financial Planner
Copyright (C) 2021 Gordon Irlam

All rights reserved. This program may not be used, copied, modified,
or redistributed without permission.

This program is distributed WITHOUT ANY WARRANTY; without even the
implied warranty of MERCHANTABILITY or FITNESS FOR A PARTICULAR
PURPOSE.

Information icon derived from https://commons.wikimedia.org/wiki/File:Info-Icon(8).svg which is in the pubic domain.

-->

<svg xmlns="http://www.w3.org/2000/svg" version="1.1" width="16" height="16" viewBox="-100 -100 200 200">
    <circle r="100" fill="blue"/>
    <path d="m 31.685892,70.931356 c 0,0 -62.599741,0 -62.599741,0 0,0 0,-3.088165 0,-3.088165 0,0 4.632252,-0.19301 4.632252,-0.19301 3.731537,-0.386018 5.983326,-1.286731 6.755368,-2.702147 0.772042,-1.415407 1.158063,-4.503572 1.158063,-9.264494 0,0 0.19301,-8.878493 0.19301,-8.878493 0,0 0,-46.12950705 0,-46.12950705 0,0 -0.19301,-7.91342705 -0.19301,-7.91342705 -0.257348,-3.0881639 -0.643369,-5.4042939 -1.158063,-6.9483769 -0.514695,-1.544081 -2.830821,-2.509137 -6.948378,-2.895155 0,0 -5.211284,-0.386024 -5.211284,-0.386024 0,0 0,-3.088165 0,-3.088165 0,0 50.633087,0 50.633087,0 0,0 0,67.360655 0,67.360655 0,0 0.193011,8.878493 0.193011,8.878493 0,4.632244 0.386017,7.72041 1.158059,9.200154 0.772039,1.479757 3.023831,2.380469 6.755367,2.766487 0,0 4.632255,0.19301 4.632255,0.19301 0,0 0,3.088165 4e-6,3.088165 z M -18.625514,-52.788368 c 0,-5.018276 1.865768,-9.264504 5.532967,-12.80303 3.6671998,-3.538526 8.0421043,-5.339957 13.2533877,-5.339957 5.2756202,0 9.7148618,1.737095 13.3820613,5.146947 3.731536,3.409852 5.532968,7.720416 5.532968,12.99604 0,5.146949 -1.801432,9.521848 -5.532968,13.060376 -3.6671995,3.538526 -8.1064411,5.275617 -13.3820613,5.275617 -5.2112834,0 -9.5861879,-1.737091 -13.2533877,-5.275617 -3.667199,-3.538528 -5.532967,-7.913427 -5.532967,-13.060376 0,0 0,0 0,0" fill="white"/>
</svg>
